# xmcd CD database file generated by Grip 3.3.1
# 
# Track frame offsets:
#       150
#       24720
#       47436
#       67476
#       88991
#       108078
#       127531
#       149206
#       176096
#       201141
# 
# Disc length: 2953 seconds
# 
# Revision: 1
# Processed by: cddbd v1.5.1PL2 Copyright (c) Steve Scherf et al.
# Submitted via: Grip 3.3.1
# 
DISCID=930b870a
DTITLE=Orquesta Tabaco y Ron - Paquete Salsera (disco 1)
DYEAR=2005
DGENRE=Salsa
TTITLE0=Avisale a Mi Contrario
TTITLE1=Con Tabaco y Ron
TTITLE2=Sonero de Barrio
TTITLE3=Dime lo Que Se Siente
TTITLE4=Sabor a Melao
TTITLE5=Acabo de Llegar
TTITLE6=Prestame Tu Mujer
TTITLE7=Canto a la Habana
TTITLE8=Tu Cariño
TTITLE9=Salsa Pa' los Tuiunfadores
EXTD=
EXTT0=
EXTT1=
EXTT2=
EXTT3=
EXTT4=
EXTT5=
EXTT6=
EXTT7=
EXTT8=
EXTT9=
PLAYORDER=
